<?xml version="1.0" standalone="no"?><!DOCTYPE svg PUBLIC "-//W3C//DTD SVG 1.1//EN" "http://www.w3.org/Graphics/SVG/1.1/DTD/svg11.dtd"><svg t="1657008705525" class="icon" viewBox="0 0 1024 1024" version="1.1" xmlns="http://www.w3.org/2000/svg" p-id="7131" xmlns:xlink="http://www.w3.org/1999/xlink" width="128" height="128"><defs><style type="text/css">@font-face { font-family: feedback-iconfont; src: url("//at.alicdn.com/t/font_1031158_u69w8yhxdu.woff2?t=1630033759944") format("woff2"), url("//at.alicdn.com/t/font_1031158_u69w8yhxdu.woff?t=1630033759944") format("woff"), url("//at.alicdn.com/t/font_1031158_u69w8yhxdu.ttf?t=1630033759944") format("truetype"); }
</style></defs><path d="M658.708 381.88c0 38.728-14.68 68.624-39.136 94.448a120.28 120.28 0 0 1-62.792 35.68v101.792h67.136c9.792 0 34.792 7.688 34.792 34.112 0 26.504-25 33.976-34.792 33.976h-67.136v68.088c0 10.336-7.072 33.568-33.976 33.568a35.192 35.192 0 0 1-36.024-33.432V512.008c-24.464-5.168-43.552-17.672-60.744-35.68-24.472-25.752-39.144-55.856-39.144-94.52s14.672-74.744 39.144-100.504c26.976-25.616 61.288-41.112 97.984-41.112s71.008 15.424 95.544 41.248c24.464 25.752 39.144 61.832 39.144 100.44z m-88.536-53.28a65.024 65.024 0 0 0-94.728 0 68.752 68.752 0 0 0-20.584 48.24c0 18.888 6.176 35.68 20.584 48.256a64.584 64.584 0 0 0 47.432 18.952c36.96 2.04 67.88-29.424 67.88-67.272 0-18.888-6.184-35.616-20.584-48.256v0.08z m369.656-200.736a37.352 37.352 0 0 1 24.672 33.984v500.808c0 2.576-22.152 87.728-107.368 166.144-77.056 70.672-277.912 167.368-319.168 185.648l-11.016 5.224c-5.2 2.64-11.36 2.64-16.568 0l-8.296-5.224a103.76 103.76 0 0 0-21.944-13.048c-68.896-33.976-228.456-115.168-294.44-175.248C100.356 747.664 81.124 663.064 81.124 660.344V161.976a37.376 37.376 0 0 1 24.736-34.04L521.444 2.36l418.32 125.504h0.064z m-43.288 67.896c0-7.888-2.72-13.128-11.08-15.768L530.956 76.696a31.968 31.968 0 0 0-22.152 0L157.5 179.992c-5.64 2.64-8.368 7.872-8.368 15.768v459.352c2.728 13.184 33.024 77.472 96.632 135.096 57.96 55.112 205.088 118.04 265.768 146.912a18.584 18.584 0 0 0 16.648 0c57.96-28.872 198.76-78.624 259.568-136.312 60.752-60.272 106.008-132.504 108.864-145.624V195.76h-0.072z" fill="#515151" p-id="7132"></path></svg>